<?xml version="1.0" encoding="UTF-8" standalone="no"?>
<!-- Created with Inkscape (http://www.inkscape.org/) -->

<svg
   width="210mm"
   height="210mm"
   viewBox="0 0 210 210"
   version="1.1"
   id="svg1"
   inkscape:version="1.3.2 (091e20ef0f, 2023-11-25)"
   sodipodi:docname="progr.svg"
   xmlns:inkscape="http://www.inkscape.org/namespaces/inkscape"
   xmlns:sodipodi="http://sodipodi.sourceforge.net/DTD/sodipodi-0.dtd"
   xmlns:xlink="http://www.w3.org/1999/xlink"
   xmlns="http://www.w3.org/2000/svg"
   xmlns:svg="http://www.w3.org/2000/svg">
  <sodipodi:namedview
     id="namedview1"
     pagecolor="#ffffff"
     bordercolor="#000000"
     borderopacity="0.25"
     inkscape:showpageshadow="2"
     inkscape:pageopacity="0.0"
     inkscape:pagecheckerboard="0"
     inkscape:deskcolor="#d1d1d1"
     inkscape:document-units="mm"
     inkscape:zoom="1.0141844"
     inkscape:cx="345.10491"
     inkscape:cy="427.43708"
     inkscape:window-width="1920"
     inkscape:window-height="1011"
     inkscape:window-x="0"
     inkscape:window-y="0"
     inkscape:window-maximized="1"
     inkscape:current-layer="layer1"
     showguides="true">
    <sodipodi:guide
       position="100.70079,113.47333"
       orientation="0,-1"
       id="guide4"
       inkscape:locked="false" />
  </sodipodi:namedview>
  <defs
     id="defs1">
    <linearGradient
       id="linearGradient19"
       inkscape:collect="always">
      <stop
         style="stop-color:#005500;stop-opacity:1;"
         offset="0"
         id="stop19" />
      <stop
         style="stop-color:#005500;stop-opacity:0;"
         offset="1"
         id="stop20" />
    </linearGradient>
    <linearGradient
       inkscape:collect="always"
       xlink:href="#linearGradient19"
       id="linearGradient20"
       x1="17.839914"
       y1="79.209271"
       x2="104.0342"
       y2="79.209271"
       gradientUnits="userSpaceOnUse"
       gradientTransform="translate(-2.1186543,8.804797)" />
    <linearGradient
       inkscape:collect="always"
       xlink:href="#linearGradient19"
       id="linearGradient21"
       gradientUnits="userSpaceOnUse"
       gradientTransform="matrix(-1,0,0,1,212.69658,8.7482849)"
       x1="17.839914"
       y1="79.209271"
       x2="104.0342"
       y2="79.209271" />
    <filter
       inkscape:collect="always"
       style="color-interpolation-filters:sRGB"
       id="filter23"
       x="-0.182198"
       y="-0.33869489"
       width="1.3639933"
       height="1.6785246">
      <feGaussianBlur
         inkscape:collect="always"
         stdDeviation="1.162181"
         id="feGaussianBlur23" />
    </filter>
    <filter
       inkscape:collect="always"
       style="color-interpolation-filters:sRGB"
       id="filter24"
       x="-0.182198"
       y="-0.33869489"
       width="1.3639933"
       height="1.6785246">
      <feGaussianBlur
         inkscape:collect="always"
         stdDeviation="1.162181"
         id="feGaussianBlur24" />
    </filter>
  </defs>
  <g
     inkscape:label="Layer 1"
     inkscape:groupmode="layer"
     id="layer1">
    <path
       id="path1-2-0-5"
       style="fill:#e5ff80;stroke:#000000;stroke-width:1;stroke-linejoin:round;stroke-dasharray:none;stroke-opacity:1"
       d="M 140.6617 25.544177 L 117.83622 55.835352 L 93.239787 55.835352 L 70.489754 25.645463 A 37.928463 37.928463 0 0 0 58.848088 71.765129 A 37.928463 37.928463 0 0 0 101.41707 92.989673 A 37.928463 37.928463 0 0 0 105.74962 91.729285 A 37.928463 37.928463 0 0 0 109.73439 92.888387 A 37.928463 37.928463 0 0 0 152.30337 71.66436 A 37.928463 37.928463 0 0 0 140.6617 25.544177 z " />
    <circle
       style="opacity:1;fill:#80ff80;stroke:#000000;stroke-width:1;stroke-linejoin:round;stroke-dasharray:none;stroke-opacity:1"
       id="path1"
       cx="48.300976"
       cy="96.4272"
       r="37.928463" />
    <path
       style="opacity:1;fill:#000000;stroke:#000000;stroke-width:1;stroke-linejoin:round;stroke-dasharray:none;stroke-opacity:1"
       d="m 69.294835,130.93949 35.829375,54.6783 37.19741,-55.92025 z"
       id="path12" />
    <path
       style="opacity:1;fill:#d40000;stroke:#000000;stroke-width:1;stroke-linejoin:round;stroke-dasharray:none;stroke-opacity:1"
       d="M 43.115989,133.80846 106.4127,152.2007 177.09667,132.1331"
       id="path6" />
    <circle
       style="fill:#aaffaa;stroke:#000000;stroke-width:1;stroke-linejoin:round;stroke-dasharray:none;stroke-opacity:1"
       id="path1-5-9"
       cx="161.69804"
       cy="96.682022"
       r="37.928463" />
    <path
       style="fill:#447821;stroke:#000000;stroke-width:1;stroke-linejoin:round;stroke-dasharray:none;stroke-opacity:1"
       id="path1-2-0"
       sodipodi:type="arc"
       sodipodi:cx="87.448853"
       sodipodi:cy="58.728027"
       sodipodi:rx="37.928463"
       sodipodi:ry="37.928463"
       sodipodi:start="0"
       sodipodi:end="4.0666172"
       sodipodi:arc-type="slice"
       d="M 125.37732,58.728027 A 37.928463,37.928463 0 0 1 95.550325,95.781157 37.928463,37.928463 0 0 1 52.981319,74.557032 37.928463,37.928463 0 0 1 64.622935,28.437009 l 22.825918,30.291018 z" />
    <path
       style="fill:#447821;stroke:#000000;stroke-width:1;stroke-linejoin:round;stroke-dasharray:none;stroke-opacity:1"
       id="path1-5-9-9"
       sodipodi:type="arc"
       sodipodi:cx="124.95567"
       sodipodi:cy="58.750198"
       sodipodi:rx="37.928463"
       sodipodi:ry="37.928463"
       sodipodi:start="5.4489179"
       sodipodi:end="3.148574"
       sodipodi:arc-type="slice"
       d="M 150.433,30.652618 A 37.928463,37.928463 0 0 1 158.36128,76.712204 37.928463,37.928463 0 0 1 115.566,95.498019 37.928463,37.928463 0 0 1 87.028135,58.485409 l 37.927535,0.264789 z" />
    <path
       style="opacity:1;fill:#ccff00;stroke:#ffffff;stroke-width:1;stroke-linejoin:round;stroke-dasharray:none;stroke-opacity:1"
       d="m 87.05539,120.91615 18.81975,37.70726 19.52952,-38.43182 c 0,0 -19.92238,4.89105 -38.34927,0.72456 z"
       id="path13" />
    <path
       id="path1-5"
       style="fill:#005500;stroke:#000000;stroke-width:1;stroke-linejoin:round;stroke-dasharray:none;stroke-opacity:1"
       d="M 85.807682 58.520976 A 37.928463 37.928463 0 0 0 47.879248 96.44941 A 37.928463 37.928463 0 0 0 85.807682 134.37784 A 37.928463 37.928463 0 0 0 104.80704 129.17971 A 37.928463 37.928463 0 0 0 124.19139 134.58817 A 37.928463 37.928463 0 0 0 162.11982 96.659733 A 37.928463 37.928463 0 0 0 124.19139 58.731299 A 37.928463 37.928463 0 0 0 105.26231 63.891707 A 37.928463 37.928463 0 0 0 85.807682 58.520976 z " />
    <path
       style="opacity:1;fill:#37c837;stroke:#000000;stroke-width:1;stroke-linejoin:round;stroke-dasharray:none;stroke-opacity:1"
       d="M 49.544308,58.583491 10.370094,96.689713 105.75336,152.04173"
       id="path4"
       sodipodi:nodetypes="ccc" />
    <path
       style="fill:#37c837;stroke:#000000;stroke-width:1;stroke-linejoin:round;stroke-dasharray:none;stroke-opacity:1"
       d="m 162.93433,58.887804 37.15033,38.106222 -94.66125,55.100804"
       id="path4-6"
       sodipodi:nodetypes="ccc" />
    <path
       style="opacity:1;fill:#2aff2a;stroke:#000000;stroke-width:1;stroke-linejoin:round;stroke-dasharray:none;stroke-opacity:1"
       d="m 48.657675,89.706256 56.830355,33.264064 57.10131,-33.082473 c 0,0 1.41525,21.906423 -18.28291,33.710833 0,0 -23.30329,11.80441 -38.95531,-0.53"
       id="path5" />
    <path
       style="fill:#2aff2a;stroke:#000000;stroke-width:1;stroke-linejoin:round;stroke-dasharray:none;stroke-opacity:1"
       d="M 161.15614,89.472185 104.32578,122.73624 47.224474,89.653775 c 0,0 -1.41525,21.906415 18.28291,33.710825 0,0 23.303291,11.80441 38.955306,-0.53"
       id="path5-8" />
    <path
       style="opacity:1;fill:#808080;stroke:#000000;stroke-width:3;stroke-linejoin:round;stroke-dasharray:none;stroke-opacity:1"
       d="m 41.537445,46.764274 c 0,0 -10.925489,75.496046 51.580415,68.069036"
       id="path23"
       sodipodi:nodetypes="cc" />
    <path
       style="fill:#808080;stroke:#000000;stroke-width:3;stroke-linejoin:round;stroke-dasharray:none;stroke-opacity:1"
       d="m 167.5906,48.558 c 0,0 10.92549,75.49605 -51.58041,68.06904"
       id="path23-8"
       sodipodi:nodetypes="cc" />
    <path
       style="opacity:1;fill:#aca793;stroke:#000000;stroke-width:1;stroke-linejoin:round;stroke-dasharray:none;stroke-opacity:1"
       d="M 67.14371,74.935038 103.88743,140.82834 86.638591,70.02616"
       id="path7" />
    <path
       style="fill:#aca793;stroke:#000000;stroke-width:1;stroke-linejoin:round;stroke-dasharray:none;stroke-opacity:1"
       d="M 142.95481,74.818116 106.21108,140.71142 123.45993,69.909238"
       id="path7-8" />
    <path
       id="path8"
       style="opacity:1;fill:#cccccc;stroke:#000000;stroke-width:1;stroke-linejoin:round;stroke-dasharray:none;stroke-opacity:1"
       d="M 142.65434 128.98179 L 105.18634 185.55043 L 67.77054 129.06034 L 78.858236 170.75288 L 104.99359 185.84189 L 104.80652 186.12404 L 105.14449 185.9287 L 105.61836 186.20259 L 105.35636 185.80675 L 131.56665 170.67382 L 142.65434 128.98179 z " />
    <path
       style="opacity:1;fill:#000000;stroke:#ffffff;stroke-width:1;stroke-linejoin:round;stroke-dasharray:none;stroke-opacity:1"
       d="m 80.643468,137.73648 v 7.26899 h 12.949073"
       id="path9" />
    <path
       style="fill:#000000;stroke:#ffffff;stroke-width:1;stroke-linejoin:round;stroke-dasharray:none;stroke-opacity:1"
       d="m 93.555536,144.95533 v 7.26899 h 12.949074"
       id="path9-5" />
    <path
       style="fill:#000000;stroke:#ffffff;stroke-width:1;stroke-linejoin:round;stroke-dasharray:none;stroke-opacity:1"
       d="m 131.44462,137.62545 v 7.26899 h -12.94907"
       id="path9-8" />
    <path
       style="fill:#000000;stroke:#ffffff;stroke-width:1;stroke-linejoin:round;stroke-dasharray:none;stroke-opacity:1"
       d="m 118.53255,144.8443 v 7.26899 h -12.94907"
       id="path9-5-9" />
    <path
       style="opacity:1;fill:#000000;stroke:#000000;stroke-width:1;stroke-linejoin:round;stroke-dasharray:none;stroke-opacity:1"
       d="m 46.099277,134.70783 c 0,0 12.065984,0.64277 21.641236,-5.39329 l 3.216733,12.71092 z"
       id="path10" />
    <path
       style="fill:#000000;stroke:#000000;stroke-width:1;stroke-linejoin:round;stroke-dasharray:none;stroke-opacity:1"
       d="m 164.88053,134.748 c 0,0 -12.06598,0.64277 -21.64123,-5.39329 l -3.21673,12.71092 z"
       id="path10-1" />
    <path
       style="opacity:1;fill:#000000;stroke:#000000;stroke-width:1;stroke-linejoin:round;stroke-dasharray:none;stroke-opacity:1"
       d="m 49.370554,58.492029 c 0,0 -3.368038,32.406034 35.630384,38.041003 l 0.628261,-0.219609 -18.511984,-33.10563 c 0,0 -9.35994,-4.658442 -17.746661,-4.715764 z"
       id="path11" />
    <path
       style="fill:#000000;stroke:#000000;stroke-width:1;stroke-linejoin:round;stroke-dasharray:none;stroke-opacity:1"
       d="m 161.60868,58.85803 c 0,0 3.36804,32.406034 -35.63038,38.041003 l -0.62826,-0.219609 18.51198,-33.10563 c 0,0 9.35994,-4.658442 17.74666,-4.715764 z"
       id="path11-1" />
    <path
       style="opacity:1;fill:#ccff00;stroke:#ffffff;stroke-width:1.4392;stroke-linejoin:round;stroke-dasharray:none;stroke-opacity:1"
       d="m 86.082388,131.71344 3.993567,24.9352 2.712718,-17.39895"
       id="path14" />
    <path
       style="fill:#ccff00;stroke:#ffffff;stroke-width:1.4392;stroke-linejoin:round;stroke-dasharray:none;stroke-opacity:1"
       d="m 125.16904,131.93455 -3.99357,24.93519 -2.71272,-17.39895"
       id="path14-3" />
    <path
       style="opacity:1;fill:none;stroke:#ffffff;stroke-width:3;stroke-linejoin:round;stroke-dasharray:none;stroke-opacity:1"
       d="m 94.540122,157.97437 c 0,0 10.194248,11.49888 22.426328,0"
       id="path15" />
    <path
       style="opacity:1;fill:none;stroke:#f1ff03;stroke-width:3;stroke-linejoin:round;stroke-dasharray:none;stroke-opacity:1"
       d="m 104.93198,163.71216 c 0,0 8.54086,8.41449 -4.59704,12.68033 0,0 -18.365745,14.08462 10.51175,13.39267 l 10.65034,8.05476"
       id="path16" />
    <path
       style="opacity:1;fill:#000000;stroke:#f1ff03;stroke-width:3;stroke-linejoin:round;stroke-dasharray:none;stroke-opacity:1"
       d="m 105.40483,190.35686 0.35974,12.52645"
       id="path17" />
    <path
       style="opacity:1;fill:#000000;stroke:#f1ff03;stroke-width:3;stroke-linejoin:round;stroke-dasharray:none;stroke-opacity:1"
       d="M 101.04727,187.76739 90.931949,198.66842"
       id="path18" />
    <path
       style="opacity:1;fill:url(#linearGradient20);stroke:#000000;stroke-width:3;stroke-linejoin:round;stroke-dasharray:none;stroke-opacity:1"
       d="m 101.87884,118.65483 c 0,0 -107.4001814,2.62921 -80.30403,-62.219546"
       id="path19" />
    <path
       style="fill:url(#linearGradient21);stroke:#000000;stroke-width:3;stroke-linejoin:round;stroke-dasharray:none;stroke-opacity:1"
       d="m 108.69909,118.59831 c 0,0 107.40018,2.62921 80.30403,-62.219538"
       id="path19-2" />
    <path
       style="opacity:1;fill:#aad400;stroke:#000000;stroke-width:3;stroke-linejoin:round;stroke-dasharray:none;stroke-opacity:1"
       id="path21"
       sodipodi:type="arc"
       sodipodi:cx="99.134628"
       sodipodi:cy="116.92322"
       sodipodi:rx="4.1816068"
       sodipodi:ry="4.1816068"
       sodipodi:start="5.4489179"
       sodipodi:end="3.148574"
       sodipodi:arc-type="slice"
       d="m 101.9435,113.82546 a 4.1816068,4.1816068 0 0 1 0.87409,5.07807 4.1816068,4.1816068 0 0 1 -4.718172,2.07113 4.1816068,4.1816068 0 0 1 -3.146295,-4.08064 l 4.181505,0.0292 z" />
    <path
       style="fill:#aad400;stroke:#000000;stroke-width:3;stroke-linejoin:round;stroke-dasharray:none;stroke-opacity:1"
       id="path21-3"
       sodipodi:type="arc"
       sodipodi:cx="-112.07063"
       sodipodi:cy="117.18833"
       sodipodi:rx="4.1816068"
       sodipodi:ry="4.1816068"
       sodipodi:start="5.4489179"
       sodipodi:end="3.148574"
       sodipodi:arc-type="slice"
       d="m -109.26176,114.09058 a 4.1816068,4.1816068 0 0 1 0.87409,5.07806 4.1816068,4.1816068 0 0 1 -4.71817,2.07113 4.1816068,4.1816068 0 0 1 -3.1463,-4.08063 l 4.18151,0.0292 z"
       transform="scale(-1,1)" />
    <path
       style="fill:#cccccc;stroke:#000000;stroke-width:1;stroke-linejoin:round;stroke-dasharray:none;stroke-opacity:1"
       d="M 151.65504,52.486205 114.91132,118.37952 132.16016,47.577327"
       id="path7-2-4" />
    <path
       style="fill:#cccccc;stroke:#000000;stroke-width:1;stroke-linejoin:round;stroke-dasharray:none;stroke-opacity:1"
       d="M 57.399684,52.246906 94.143409,118.14022 76.894565,47.338028"
       id="path7-2" />
    <path
       style="opacity:1;fill:#000000;stroke:#f1ff03;stroke-width:3;stroke-linejoin:round;stroke-dasharray:none;stroke-opacity:1"
       id="path22"
       sodipodi:type="arc"
       sodipodi:cx="73.665497"
       sodipodi:cy="94.692886"
       sodipodi:rx="11.770803"
       sodipodi:ry="7.2747564"
       sodipodi:start="5.4489179"
       sodipodi:end="3.148574"
       sodipodi:arc-type="slice"
       d="m 81.572188,89.303713 a 11.770803,7.2747564 0 0 1 2.46048,8.834323 11.770803,7.2747564 0 0 1 -13.281183,3.603154 11.770803,7.2747564 0 0 1 -8.856505,-7.099091 l 11.770517,0.05079 z" />
    <path
       style="fill:#000000;stroke:#f1ff03;stroke-width:3;stroke-linejoin:round;stroke-dasharray:none;stroke-opacity:1"
       id="path22-7"
       sodipodi:type="arc"
       sodipodi:cx="-135.4269"
       sodipodi:cy="95.428787"
       sodipodi:rx="11.770803"
       sodipodi:ry="7.2747564"
       sodipodi:start="5.4489179"
       sodipodi:end="3.148574"
       sodipodi:arc-type="slice"
       d="m -127.5202,90.039614 a 11.770803,7.2747564 0 0 1 2.46048,8.834322 11.770803,7.2747564 0 0 1 -13.28119,3.603154 11.770803,7.2747564 0 0 1 -8.8565,-7.09909 l 11.77051,0.05079 z"
       transform="scale(-1,1)" />
    <path
       style="opacity:0.898129;fill:#ffffff;stroke:#f1ff03;stroke-width:3;stroke-linejoin:round;stroke-dasharray:none;stroke-opacity:1;filter:url(#filter24)"
       id="path22-4"
       sodipodi:type="arc"
       sodipodi:cx="74.229004"
       sodipodi:cy="91.021126"
       sodipodi:rx="11.770803"
       sodipodi:ry="7.2747564"
       sodipodi:start="5.4489179"
       sodipodi:end="3.148574"
       sodipodi:arc-type="slice"
       d="m 82.135695,85.631953 a 11.770803,7.2747564 0 0 1 2.46048,8.834322 11.770803,7.2747564 0 0 1 -13.281183,3.603158 11.770803,7.2747564 0 0 1 -8.856505,-7.099094 l 11.770517,0.05079 z"
       transform="matrix(1.2852129,0,0,0.4085667,-30.57174,58.594563)" />
    <path
       style="opacity:0.898129;fill:#ffffff;stroke:#f1ff03;stroke-width:3;stroke-linejoin:round;stroke-dasharray:none;stroke-opacity:1;filter:url(#filter23)"
       id="path22-7-9"
       sodipodi:type="arc"
       sodipodi:cx="-135.32698"
       sodipodi:cy="93.139908"
       sodipodi:rx="11.770803"
       sodipodi:ry="7.2747564"
       sodipodi:start="5.4489179"
       sodipodi:end="3.148574"
       sodipodi:arc-type="slice"
       d="m -127.42029,87.750735 a 11.770803,7.2747564 0 0 1 2.46048,8.834322 11.770803,7.2747564 0 0 1 -13.28118,3.603153 11.770803,7.2747564 0 0 1 -8.85651,-7.099089 l 11.77052,0.05079 z"
       transform="matrix(-1.2852129,0,0,0.4085667,-29.719108,58.029562)" />
  </g>
</svg>
